<svg width="507" height="496" viewBox="0 0 507 496" fill="none" xmlns="http://www.w3.org/2000/svg">
<g clip-path="url(#clip0)">
<path d="M349.569 238.683C346.417 236.758 345.424 232.642 347.349 229.491C349.275 226.34 353.39 225.346 356.541 227.272C359.692 229.197 360.686 233.313 358.761 236.464C356.835 239.615 352.72 240.609 349.569 238.683Z" fill="#FDCB6E"/>
<path d="M342.171 208.043C339.019 206.118 338.026 202.002 339.951 198.851C341.877 195.7 345.992 194.706 349.143 196.632C352.294 198.557 353.288 202.673 351.363 205.824C349.437 208.975 345.322 209.969 342.171 208.043Z" fill="#FDCB6E"/>
<path d="M311.531 215.441C308.38 213.516 307.386 209.4 309.311 206.249C311.237 203.098 315.352 202.104 318.503 204.03C321.654 205.955 322.648 210.071 320.723 213.222C318.797 216.373 314.682 217.367 311.531 215.441Z" fill="#FDCB6E"/>
<path d="M304.133 184.801C300.982 182.876 299.988 178.76 301.913 175.609C303.839 172.458 307.954 171.465 311.105 173.39C314.257 175.315 315.25 179.431 313.325 182.582C311.399 185.733 307.284 186.727 304.133 184.801Z" fill="#FDCB6E"/>
<path d="M273.493 192.199C270.342 190.274 269.348 186.158 271.274 183.007C273.199 179.856 277.314 178.862 280.465 180.788C283.617 182.713 284.61 186.829 282.685 189.98C280.759 193.131 276.644 194.125 273.493 192.199Z" fill="#FDCB6E"/>
<path d="M266.095 161.559C262.944 159.634 261.95 155.519 263.876 152.367C265.801 149.216 269.916 148.223 273.068 150.148C276.219 152.073 277.212 156.189 275.287 159.34C273.361 162.491 269.246 163.485 266.095 161.559Z" fill="#FDCB6E"/>
<path d="M235.455 168.957C232.304 167.032 231.31 162.916 233.236 159.765C235.161 156.614 239.276 155.621 242.428 157.546C245.579 159.471 246.572 163.587 244.647 166.738C242.722 169.889 238.606 170.883 235.455 168.957Z" fill="#FDCB6E"/>
<path d="M228.057 138.317C224.906 136.392 223.912 132.277 225.838 129.125C227.763 125.974 231.879 124.981 235.03 126.906C238.181 128.832 239.174 132.947 237.249 136.098C235.324 139.249 231.208 140.243 228.057 138.317Z" fill="#FDCB6E"/>
<path d="M197.417 145.715C194.266 143.79 193.273 139.675 195.198 136.523C197.124 133.372 201.239 132.379 204.39 134.304C207.541 136.229 208.535 140.345 206.609 143.496C204.684 146.647 200.569 147.641 197.417 145.715Z" fill="#FDCB6E"/>
<path d="M364.364 299.963C361.213 298.037 360.22 293.922 362.145 290.771C364.071 287.62 368.186 286.626 371.337 288.552C374.488 290.477 375.482 294.592 373.556 297.743C371.631 300.895 367.516 301.888 364.364 299.963Z" fill="#FDCB6E"/>
<path d="M356.967 269.323C353.815 267.398 352.822 263.282 354.747 260.131C356.673 256.98 360.788 255.986 363.939 257.912C367.09 259.837 368.084 263.952 366.158 267.104C364.233 270.255 360.118 271.248 356.967 269.323Z" fill="#FDCB6E"/>
<path d="M326.327 276.721C323.175 274.795 322.182 270.68 324.107 267.529C326.033 264.378 330.148 263.384 333.299 265.31C336.45 267.235 337.444 271.35 335.519 274.502C333.593 277.653 329.478 278.646 326.327 276.721Z" fill="#FDCB6E"/>
<path d="M318.929 246.081C315.778 244.156 314.784 240.04 316.709 236.889C318.635 233.738 322.75 232.744 325.901 234.67C329.052 236.595 330.046 240.711 328.121 243.862C326.195 247.013 322.08 248.006 318.929 246.081Z" fill="#FDCB6E"/>
<path d="M288.289 253.479C285.138 251.554 284.144 247.438 286.069 244.287C287.995 241.136 292.11 240.142 295.261 242.068C298.413 243.993 299.406 248.108 297.481 251.26C295.555 254.411 291.44 255.404 288.289 253.479Z" fill="#FDCB6E"/>
<path d="M280.891 222.839C277.74 220.914 276.746 216.798 278.671 213.647C280.597 210.496 284.712 209.502 287.863 211.428C291.015 213.353 292.008 217.469 290.083 220.62C288.157 223.771 284.042 224.765 280.891 222.839Z" fill="#FDCB6E"/>
<path d="M250.251 230.237C247.1 228.312 246.106 224.196 248.032 221.045C249.957 217.894 254.072 216.9 257.224 218.826C260.375 220.751 261.368 224.866 259.443 228.018C257.517 231.169 253.402 232.162 250.251 230.237Z" fill="#FDCB6E"/>
<path d="M242.853 199.597C239.702 197.672 238.708 193.556 240.634 190.405C242.559 187.254 246.674 186.26 249.826 188.186C252.977 190.111 253.97 194.227 252.045 197.378C250.12 200.529 246.004 201.523 242.853 199.597Z" fill="#FDCB6E"/>
<path d="M212.213 206.995C209.062 205.07 208.069 200.954 209.994 197.803C211.919 194.652 216.035 193.658 219.186 195.584C222.337 197.509 223.331 201.625 221.405 204.776C219.48 207.927 215.365 208.92 212.213 206.995Z" fill="#FDCB6E"/>
<path d="M204.815 176.355C201.664 174.43 200.671 170.314 202.596 167.163C204.521 164.012 208.637 163.018 211.788 164.944C214.939 166.869 215.933 170.985 214.007 174.136C212.082 177.287 207.967 178.281 204.815 176.355Z" fill="#FDCB6E"/>
<path d="M174.175 183.753C171.024 181.828 170.03 177.712 171.956 174.561C173.881 171.41 177.997 170.416 181.148 172.342C184.299 174.267 185.293 178.383 183.367 181.534C181.442 184.685 177.326 185.679 174.175 183.753Z" fill="#FDCB6E"/>
<path d="M379.16 361.243C376.009 359.317 375.015 355.202 376.941 352.051C378.866 348.899 382.982 347.906 386.133 349.831C389.284 351.757 390.278 355.872 388.352 359.023C386.427 362.174 382.311 363.168 379.16 361.243Z" fill="#FDCB6E"/>
<path d="M371.762 330.603C368.611 328.677 367.617 324.562 369.543 321.411C371.468 318.26 375.584 317.266 378.735 319.191C381.886 321.117 382.88 325.232 380.954 328.383C379.029 331.534 374.913 332.528 371.762 330.603Z" fill="#FDCB6E"/>
<path d="M341.123 338.001C337.971 336.075 336.978 331.96 338.903 328.809C340.829 325.658 344.944 324.664 348.095 326.589C351.246 328.515 352.24 332.63 350.314 335.781C348.389 338.932 344.274 339.926 341.123 338.001Z" fill="#FDCB6E"/>
<path d="M333.725 307.361C330.573 305.435 329.58 301.32 331.505 298.169C333.431 295.018 337.546 294.024 340.697 295.949C343.848 297.875 344.842 301.99 342.917 305.141C340.991 308.293 336.876 309.286 333.725 307.361Z" fill="#FDCB6E"/>
<path d="M303.085 314.759C299.934 312.833 298.94 308.718 300.865 305.567C302.791 302.416 306.906 301.422 310.057 303.347C313.208 305.273 314.202 309.388 312.277 312.539C310.351 315.69 306.236 316.684 303.085 314.759Z" fill="#FDCB6E"/>
<path d="M295.687 284.119C292.536 282.193 291.542 278.078 293.467 274.927C295.393 271.776 299.508 270.782 302.659 272.707C305.81 274.633 306.804 278.748 304.879 281.899C302.953 285.051 298.838 286.044 295.687 284.119Z" fill="#FDCB6E"/>
<path d="M265.047 291.517C261.896 289.591 260.902 285.476 262.827 282.325C264.753 279.174 268.868 278.18 272.019 280.105C275.171 282.031 276.164 286.146 274.239 289.297C272.313 292.449 268.198 293.442 265.047 291.517Z" fill="#FDCB6E"/>
<path d="M257.649 260.877C254.498 258.951 253.504 254.836 255.43 251.685C257.355 248.534 261.47 247.54 264.621 249.466C267.773 251.391 268.766 255.506 266.841 258.657C264.915 261.809 260.8 262.802 257.649 260.877Z" fill="#FDCB6E"/>
<path d="M227.009 268.275C223.858 266.349 222.864 262.234 224.79 259.083C226.715 255.932 230.831 254.938 233.982 256.863C237.133 258.789 238.127 262.904 236.201 266.055C234.276 269.207 230.16 270.2 227.009 268.275Z" fill="#FDCB6E"/>
<path d="M219.611 237.635C216.46 235.71 215.466 231.594 217.392 228.443C219.317 225.292 223.433 224.298 226.584 226.224C229.735 228.149 230.729 232.264 228.803 235.416C226.878 238.567 222.762 239.56 219.611 237.635Z" fill="#FDCB6E"/>
<path d="M188.971 245.033C185.82 243.107 184.826 238.992 186.752 235.841C188.677 232.69 192.793 231.696 195.944 233.622C199.095 235.547 200.089 239.662 198.163 242.813C196.238 245.965 192.122 246.958 188.971 245.033Z" fill="#FDCB6E"/>
<path d="M181.573 214.393C178.422 212.468 177.428 208.352 179.354 205.201C181.279 202.05 185.395 201.056 188.546 202.982C191.697 204.907 192.691 209.022 190.765 212.174C188.84 215.325 184.724 216.318 181.573 214.393Z" fill="#FDCB6E"/>
<path d="M150.934 221.791C147.782 219.865 146.789 215.75 148.714 212.599C150.64 209.448 154.755 208.454 157.906 210.38C161.057 212.305 162.051 216.42 160.126 219.572C158.2 222.723 154.085 223.716 150.934 221.791Z" fill="#FDCB6E"/>
<path d="M348.52 368.64C345.369 366.715 344.376 362.6 346.301 359.449C348.227 356.297 352.342 355.304 355.493 357.229C358.644 359.155 359.638 363.27 357.712 366.421C355.787 369.572 351.672 370.566 348.52 368.64Z" fill="#FDCB6E"/>
<path d="M317.881 376.038C314.729 374.113 313.736 369.998 315.661 366.846C317.587 363.695 321.702 362.702 324.853 364.627C328.004 366.553 328.998 370.668 327.073 373.819C325.147 376.97 321.032 377.964 317.881 376.038Z" fill="#FDCB6E"/>
<path d="M310.483 345.399C307.331 343.473 306.338 339.358 308.263 336.207C310.189 333.055 314.304 332.062 317.455 333.987C320.606 335.913 321.6 340.028 319.675 343.179C317.749 346.33 313.634 347.324 310.483 345.399Z" fill="#FDCB6E"/>
<path d="M279.843 352.796C276.692 350.871 275.698 346.756 277.623 343.605C279.549 340.453 283.664 339.46 286.815 341.385C289.966 343.311 290.96 347.426 289.035 350.577C287.109 353.728 282.994 354.722 279.843 352.796Z" fill="#FDCB6E"/>
<path d="M272.445 322.157C269.294 320.231 268.3 316.116 270.225 312.965C272.151 309.813 276.266 308.82 279.417 310.745C282.569 312.671 283.562 316.786 281.637 319.937C279.711 323.088 275.596 324.082 272.445 322.157Z" fill="#FDCB6E"/>
<path d="M241.805 329.555C238.654 327.629 237.66 323.514 239.586 320.363C241.511 317.211 245.626 316.218 248.777 318.143C251.929 320.069 252.922 324.184 250.997 327.335C249.071 330.486 244.956 331.48 241.805 329.555Z" fill="#FDCB6E"/>
<path d="M234.407 298.915C231.256 296.989 230.262 292.874 232.188 289.723C234.113 286.572 238.229 285.578 241.38 287.503C244.531 289.429 245.525 293.544 243.599 296.695C241.674 299.846 237.558 300.84 234.407 298.915Z" fill="#FDCB6E"/>
<path d="M203.767 306.313C200.616 304.387 199.622 300.272 201.548 297.121C203.473 293.969 207.588 292.976 210.74 294.901C213.891 296.827 214.884 300.942 212.959 304.093C211.034 307.244 206.918 308.238 203.767 306.313Z" fill="#FDCB6E"/>
<path d="M196.369 275.673C193.218 273.747 192.224 269.632 194.15 266.481C196.075 263.33 200.191 262.336 203.342 264.261C206.493 266.187 207.486 270.302 205.561 273.453C203.636 276.605 199.52 277.598 196.369 275.673Z" fill="#FDCB6E"/>
<path d="M165.729 283.071C162.578 281.145 161.585 277.03 163.51 273.879C165.436 270.728 169.551 269.734 172.702 271.659C175.853 273.585 176.847 277.7 174.921 280.851C172.996 284.002 168.881 284.996 165.729 283.071Z" fill="#FDCB6E"/>
<path d="M158.332 252.431C155.18 250.505 154.187 246.39 156.112 243.239C158.038 240.088 162.153 239.094 165.304 241.019C168.455 242.945 169.449 247.06 167.523 250.211C165.598 253.363 161.483 254.356 158.332 252.431Z" fill="#FDCB6E"/>
<path d="M127.691 259.829C124.54 257.903 123.547 253.788 125.472 250.637C127.397 247.486 131.513 246.492 134.664 248.417C137.815 250.343 138.809 254.458 136.883 257.609C134.958 260.76 130.843 261.754 127.691 259.829Z" fill="#FDCB6E"/>
<path d="M287.241 383.436C284.09 381.511 283.096 377.396 285.021 374.244C286.947 371.093 291.062 370.1 294.213 372.025C297.364 373.95 298.358 378.066 296.433 381.217C294.507 384.368 290.392 385.362 287.241 383.436Z" fill="#FDCB6E"/>
<path d="M256.601 390.834C253.45 388.909 252.456 384.793 254.381 381.642C256.307 378.491 260.422 377.497 263.573 379.423C266.725 381.348 267.718 385.464 265.793 388.615C263.867 391.766 259.752 392.76 256.601 390.834Z" fill="#FDCB6E"/>
<path d="M249.203 360.194C246.052 358.269 245.058 354.154 246.983 351.002C248.909 347.851 253.024 346.858 256.175 348.783C259.327 350.708 260.32 354.824 258.395 357.975C256.469 361.126 252.354 362.12 249.203 360.194Z" fill="#FDCB6E"/>
<path d="M218.563 367.592C215.412 365.667 214.418 361.552 216.344 358.4C218.269 355.249 222.384 354.256 225.536 356.181C228.687 358.106 229.68 362.222 227.755 365.373C225.829 368.524 221.714 369.518 218.563 367.592Z" fill="#FDCB6E"/>
<path d="M211.165 336.952C208.014 335.027 207.02 330.912 208.946 327.76C210.871 324.609 214.986 323.616 218.138 325.541C221.289 327.467 222.282 331.582 220.357 334.733C218.432 337.884 214.316 338.878 211.165 336.952Z" fill="#FDCB6E"/>
<path d="M180.525 344.35C177.374 342.425 176.381 338.31 178.306 335.158C180.231 332.007 184.347 331.014 187.498 332.939C190.649 334.864 191.643 338.98 189.717 342.131C187.792 345.282 183.677 346.276 180.525 344.35Z" fill="#FDCB6E"/>
<path d="M173.127 313.711C169.976 311.785 168.983 307.67 170.908 304.519C172.833 301.367 176.949 300.374 180.1 302.299C183.251 304.225 184.245 308.34 182.319 311.491C180.394 314.642 176.279 315.636 173.127 313.711Z" fill="#FDCB6E"/>
<path d="M142.487 321.108C139.336 319.183 138.342 315.068 140.268 311.916C142.193 308.765 146.309 307.772 149.46 309.697C152.611 311.623 153.605 315.738 151.679 318.889C149.754 322.04 145.638 323.034 142.487 321.108Z" fill="#FDCB6E"/>
<path d="M135.089 290.469C131.938 288.543 130.945 284.428 132.87 281.277C134.795 278.125 138.911 277.132 142.062 279.057C145.213 280.983 146.207 285.098 144.281 288.249C142.356 291.4 138.24 292.394 135.089 290.469Z" fill="#FDCB6E"/>
<path d="M104.45 297.866C101.299 295.941 100.305 291.826 102.23 288.675C104.156 285.523 108.271 284.53 111.422 286.455C114.573 288.381 115.567 292.496 113.642 295.647C111.716 298.798 107.601 299.792 104.45 297.866Z" fill="#FDCB6E"/>
<path d="M225.961 398.232C222.81 396.307 221.816 392.191 223.742 389.04C225.667 385.889 229.782 384.895 232.933 386.821C236.085 388.746 237.078 392.862 235.153 396.013C233.227 399.164 229.112 400.158 225.961 398.232Z" fill="#FDCB6E"/>
<path d="M195.321 405.63C192.17 403.705 191.176 399.589 193.102 396.438C195.027 393.287 199.143 392.293 202.294 394.219C205.445 396.144 206.439 400.26 204.513 403.411C202.588 406.562 198.472 407.556 195.321 405.63Z" fill="#FDCB6E"/>
<path d="M187.923 374.99C184.772 373.065 183.779 368.949 185.704 365.798C187.629 362.647 191.745 361.653 194.896 363.579C198.047 365.504 199.041 369.62 197.115 372.771C195.19 375.922 191.074 376.916 187.923 374.99Z" fill="#FDCB6E"/>
<path d="M157.283 382.388C154.132 380.463 153.138 376.347 155.064 373.196C156.989 370.045 161.105 369.051 164.256 370.977C167.407 372.902 168.401 377.018 166.475 380.169C164.55 383.32 160.434 384.314 157.283 382.388Z" fill="#FDCB6E"/>
<path d="M149.885 351.748C146.734 349.823 145.74 345.708 147.666 342.556C149.591 339.405 153.707 338.412 156.858 340.337C160.009 342.262 161.003 346.378 159.077 349.529C157.152 352.68 153.036 353.674 149.885 351.748Z" fill="#FDCB6E"/>
<path d="M119.246 359.146C116.094 357.221 115.101 353.105 117.026 349.954C118.952 346.803 123.067 345.809 126.218 347.735C129.369 349.66 130.363 353.776 128.438 356.927C126.512 360.078 122.397 361.072 119.246 359.146Z" fill="#FDCB6E"/>
<path d="M111.848 328.506C108.696 326.581 107.703 322.466 109.628 319.314C111.554 316.163 115.669 315.17 118.82 317.095C121.971 319.02 122.965 323.136 121.04 326.287C119.114 329.438 114.999 330.432 111.848 328.506Z" fill="#FDCB6E"/>
<path d="M81.2075 335.904C78.0563 333.979 77.0627 329.863 78.9881 326.712C80.9135 323.561 85.0289 322.568 88.1801 324.493C91.3312 326.418 92.3249 330.534 90.3995 333.685C88.474 336.836 84.3586 337.83 81.2075 335.904Z" fill="#FDCB6E"/>
<path d="M248.155 490.152C245.004 488.226 244.01 484.111 245.935 480.96C247.861 477.809 251.976 476.815 255.127 478.74C258.278 480.666 259.272 484.781 257.347 487.932C255.421 491.084 251.306 492.077 248.155 490.152Z" fill="#FDCB6E"/>
<path d="M210.117 466.91C206.966 464.984 205.972 460.869 207.897 457.718C209.823 454.567 213.938 453.573 217.089 455.498C220.24 457.424 221.234 461.539 219.309 464.69C217.383 467.842 213.268 468.835 210.117 466.91Z" fill="#FDCB6E"/>
<path d="M172.079 443.668C168.928 441.742 167.934 437.627 169.86 434.476C171.785 431.325 175.901 430.331 179.052 432.257C182.203 434.182 183.196 438.297 181.271 441.448C179.346 444.6 175.23 445.593 172.079 443.668Z" fill="#FDCB6E"/>
<path d="M164.681 413.028C161.53 411.103 160.536 406.987 162.462 403.836C164.387 400.685 168.503 399.691 171.654 401.617C174.805 403.542 175.799 407.657 173.873 410.809C171.948 413.96 167.832 414.953 164.681 413.028Z" fill="#FDCB6E"/>
<path d="M134.041 420.426C130.89 418.501 129.897 414.385 131.822 411.234C133.748 408.083 137.863 407.089 141.014 409.015C144.165 410.94 145.159 415.055 143.233 418.207C141.308 421.358 137.193 422.351 134.041 420.426Z" fill="#FDCB6E"/>
<path d="M126.644 389.786C123.492 387.861 122.499 383.745 124.424 380.594C126.35 377.443 130.465 376.449 133.616 378.375C136.767 380.3 137.761 384.416 135.835 387.567C133.91 390.718 129.795 391.711 126.644 389.786Z" fill="#FDCB6E"/>
<path d="M96.0034 397.184C92.8522 395.259 91.8586 391.143 93.784 387.992C95.7094 384.841 99.8248 383.847 102.976 385.773C106.127 387.698 107.121 391.813 105.195 394.965C103.27 398.116 99.1545 399.109 96.0034 397.184Z" fill="#FDCB6E"/>
<path d="M88.6054 366.544C85.4543 364.619 84.4606 360.503 86.3861 357.352C88.3115 354.201 92.4269 353.207 95.578 355.133C98.7292 357.058 99.7228 361.174 97.7974 364.325C95.872 367.476 91.7566 368.47 88.6054 366.544Z" fill="#FDCB6E"/>
<path d="M57.9658 373.942C54.8146 372.017 53.821 367.901 55.7464 364.75C57.6718 361.599 61.7872 360.605 64.9384 362.531C68.0895 364.456 69.0832 368.572 67.1578 371.723C65.2323 374.874 61.1169 375.867 57.9658 373.942Z" fill="#FDCB6E"/>
<path d="M217.515 497.55C214.363 495.624 213.37 491.509 215.295 488.358C217.221 485.207 221.336 484.213 224.487 486.138C227.638 488.064 228.632 492.179 226.707 495.33C224.781 498.481 220.666 499.475 217.515 497.55Z" fill="#FDCB6E"/>
<path d="M186.875 504.948C183.724 503.022 182.73 498.907 184.656 495.756C186.581 492.605 190.696 491.611 193.848 493.536C196.999 495.462 197.992 499.577 196.067 502.728C194.142 505.879 190.026 506.873 186.875 504.948Z" fill="#FDCB6E"/>
<path d="M179.477 474.308C176.326 472.382 175.332 468.267 177.258 465.116C179.183 461.965 183.298 460.971 186.45 462.896C189.601 464.822 190.594 468.937 188.669 472.088C186.744 475.24 182.628 476.233 179.477 474.308Z" fill="#FDCB6E"/>
<path d="M148.837 481.706C145.686 479.78 144.693 475.665 146.618 472.514C148.543 469.363 152.659 468.369 155.81 470.294C158.961 472.22 159.955 476.335 158.029 479.486C156.104 482.637 151.989 483.631 148.837 481.706Z" fill="#FDCB6E"/>
<path d="M141.439 451.066C138.288 449.14 137.295 445.025 139.22 441.874C141.145 438.723 145.261 437.729 148.412 439.654C151.563 441.58 152.557 445.695 150.631 448.846C148.706 451.998 144.591 452.991 141.439 451.066Z" fill="#FDCB6E"/>
<path d="M110.799 458.464C107.648 456.538 106.654 452.423 108.58 449.272C110.505 446.121 114.621 445.127 117.772 447.052C120.923 448.978 121.917 453.093 119.991 456.244C118.066 459.396 113.95 460.389 110.799 458.464Z" fill="#FDCB6E"/>
<path d="M103.401 427.824C100.25 425.898 99.2565 421.783 101.182 418.632C103.107 415.481 107.223 414.487 110.374 416.413C113.525 418.338 114.519 422.453 112.593 425.605C110.668 428.756 106.552 429.749 103.401 427.824Z" fill="#FDCB6E"/>
<path d="M72.7617 435.222C69.6105 433.296 68.6169 429.181 70.5423 426.03C72.4677 422.879 76.5831 421.885 79.7343 423.81C82.8854 425.736 83.8791 429.851 81.9537 433.002C80.0282 436.154 75.9128 437.147 72.7617 435.222Z" fill="#FDCB6E"/>
<path d="M65.3637 404.582C62.2126 402.657 61.2189 398.541 63.1444 395.39C65.0698 392.239 69.1852 391.245 72.3363 393.171C75.4875 395.096 76.4811 399.211 74.5557 402.363C72.6303 405.514 68.5149 406.507 65.3637 404.582Z" fill="#FDCB6E"/>
<path d="M34.7236 411.98C31.5725 410.054 30.5788 405.939 32.5042 402.788C34.4297 399.637 38.545 398.643 41.6962 400.569C44.8473 402.494 45.841 406.609 43.9156 409.76C41.9901 412.912 37.8748 413.905 34.7236 411.98Z" fill="#FDCB6E"/>
<path d="M118.197 489.104C115.046 487.178 114.052 483.063 115.978 479.912C117.903 476.76 122.019 475.767 125.17 477.692C128.321 479.618 129.315 483.733 127.389 486.884C125.464 490.035 121.348 491.029 118.197 489.104Z" fill="#FDCB6E"/>
<path d="M87.5576 496.502C84.4064 494.576 83.4128 490.461 85.3382 487.31C87.2636 484.158 91.379 483.165 94.5302 485.09C97.6813 487.016 98.675 491.131 96.7495 494.282C94.8241 497.433 90.7087 498.427 87.5576 496.502Z" fill="#FDCB6E"/>
<path d="M80.1596 465.862C77.0085 463.936 76.0148 459.821 77.9403 456.67C79.8657 453.519 83.9811 452.525 87.1322 454.45C90.2834 456.376 91.277 460.491 89.3516 463.642C87.4262 466.793 83.3108 467.787 80.1596 465.862Z" fill="#FDCB6E"/>
<path d="M49.5195 473.26C46.3684 471.334 45.3747 467.219 47.3001 464.068C49.2256 460.916 53.3409 459.923 56.4921 461.848C59.6432 463.774 60.6369 467.889 58.7115 471.04C56.786 474.191 52.6707 475.185 49.5195 473.26Z" fill="#FDCB6E"/>
<path d="M42.1216 442.62C38.9704 440.694 37.9768 436.579 39.9022 433.428C41.8276 430.277 45.943 429.283 49.0941 431.208C52.2453 433.134 53.2389 437.249 51.3135 440.4C49.3881 443.551 45.2727 444.545 42.1216 442.62Z" fill="#FDCB6E"/>
<path d="M11.4819 450.018C8.33075 448.092 7.3371 443.977 9.26253 440.826C11.188 437.675 15.3033 436.681 18.4545 438.606C21.6056 440.532 22.5993 444.647 20.6739 447.798C18.7484 450.949 14.6331 451.943 11.4819 450.018Z" fill="#FDCB6E"/>
<path d="M56.9175 503.899C53.7663 501.974 52.7727 497.859 54.6981 494.707C56.6235 491.556 60.7389 490.563 63.89 492.488C67.0412 494.414 68.0348 498.529 66.1094 501.68C64.184 504.831 60.0686 505.825 56.9175 503.899Z" fill="#FDCB6E"/>
<path d="M18.8799 480.657C15.7287 478.732 14.7351 474.617 16.6605 471.466C18.5859 468.314 22.7013 467.321 25.8524 469.246C29.0036 471.172 29.9972 475.287 28.0718 478.438C26.1464 481.589 22.031 482.583 18.8799 480.657Z" fill="#FDCB6E"/>
<path d="M-11.7603 488.055C-14.9114 486.13 -15.9051 482.015 -13.9797 478.863C-12.0542 475.712 -7.93885 474.719 -4.7877 476.644C-1.63655 478.57 -0.642897 482.685 -2.56832 485.836C-4.49375 488.987 -8.60913 489.981 -11.7603 488.055Z" fill="#FDCB6E"/>
<path d="M190.02 115.075C186.868 113.15 185.875 109.035 187.8 105.884C189.726 102.732 193.841 101.739 196.992 103.664C200.143 105.59 201.137 109.705 199.211 112.856C197.286 116.007 193.171 117.001 190.02 115.075Z" fill="#FDCB6E"/>
<path d="M159.379 122.473C156.228 120.548 155.235 116.433 157.16 113.281C159.085 110.13 163.201 109.137 166.352 111.062C169.503 112.987 170.497 117.103 168.571 120.254C166.646 123.405 162.531 124.399 159.379 122.473Z" fill="#FDCB6E"/>
<path d="M151.982 91.8335C148.831 89.9081 147.837 85.7927 149.763 82.6416C151.688 79.4904 155.803 78.4968 158.954 80.4222C162.106 82.3476 163.099 86.463 161.174 89.6142C159.248 92.7653 155.133 93.759 151.982 91.8335Z" fill="#FDCB6E"/>
<path d="M121.342 99.2315C118.191 97.306 117.197 93.1907 119.122 90.0395C121.048 86.8883 125.163 85.8947 128.314 87.8201C131.466 89.7455 132.459 93.8609 130.534 97.0121C128.608 100.163 124.493 101.157 121.342 99.2315Z" fill="#FDCB6E"/>
<path d="M113.944 68.5916C110.793 66.6662 109.799 62.5508 111.724 59.3996C113.65 56.2485 117.765 55.2548 120.916 57.1803C124.068 59.1057 125.061 63.2211 123.136 66.3722C121.21 69.5234 117.095 70.517 113.944 68.5916Z" fill="#FDCB6E"/>
<path d="M83.3042 75.9895C80.153 74.0641 79.1594 69.9487 81.0848 66.7976C83.0102 63.6464 87.1256 62.6528 90.2768 64.5782C93.4279 66.5036 94.4216 70.619 92.4961 73.7702C90.5707 76.9213 86.4553 77.915 83.3042 75.9895Z" fill="#FDCB6E"/>
<path d="M75.9062 45.3497C72.7551 43.4242 71.7614 39.3089 73.6868 36.1577C75.6123 33.0065 79.7277 32.0129 82.8788 33.9383C86.03 35.8638 87.0236 39.9791 85.0982 43.1303C83.1728 46.2814 79.0574 47.2751 75.9062 45.3497Z" fill="#FDCB6E"/>
<path d="M45.2661 52.7476C42.1149 50.8222 41.1213 46.7068 43.0467 43.5556C44.9721 40.4045 49.0875 39.4108 52.2387 41.3362C55.3898 43.2617 56.3835 47.3771 54.458 50.5282C52.5326 53.6794 48.4172 54.673 45.2661 52.7476Z" fill="#FDCB6E"/>
<path d="M37.8681 22.1077C34.717 20.1823 33.7233 16.0669 35.6488 12.9158C37.5742 9.76462 41.6896 8.77097 44.8407 10.6964C47.9919 12.6218 48.9855 16.7372 47.0601 19.8884C45.1347 23.0395 41.0193 24.0332 37.8681 22.1077Z" fill="#FDCB6E"/>
<path d="M7.22849 29.5056C4.07733 27.5802 3.08369 23.4648 5.00911 20.3137C6.93454 17.1625 11.0499 16.1689 14.2011 18.0943C17.3522 20.0197 18.3459 24.1351 16.4204 27.2863C14.495 30.4374 10.3796 31.4311 7.22849 29.5056Z" fill="#FDCB6E"/>
<path d="M-0.169461 -1.13422C-3.32061 -3.05965 -4.31426 -7.17503 -2.38884 -10.3262C-0.463412 -13.4773 3.65197 -14.471 6.80312 -12.5456C9.95427 -10.6201 10.9479 -6.50475 9.0225 -3.3536C7.09707 -0.202444 2.98169 0.791205 -0.169461 -1.13422Z" fill="#FDCB6E"/>
<path d="M166.777 153.113C163.626 151.188 162.633 147.072 164.558 143.921C166.483 140.77 170.599 139.777 173.75 141.702C176.901 143.627 177.895 147.743 175.969 150.894C174.044 154.045 169.928 155.039 166.777 153.113Z" fill="#FDCB6E"/>
<path d="M136.138 160.511C132.987 158.586 131.993 154.47 133.918 151.319C135.844 148.168 139.959 147.174 143.11 149.1C146.261 151.025 147.255 155.141 145.33 158.292C143.404 161.443 139.289 162.437 136.138 160.511Z" fill="#FDCB6E"/>
<path d="M128.74 129.871C125.589 127.946 124.595 123.831 126.52 120.679C128.446 117.528 132.561 116.535 135.712 118.46C138.863 120.385 139.857 124.501 137.932 127.652C136.006 130.803 131.891 131.797 128.74 129.871Z" fill="#FDCB6E"/>
<path d="M98.1001 137.269C94.9489 135.344 93.9553 131.228 95.8807 128.077C97.8061 124.926 101.921 123.932 105.073 125.858C108.224 127.783 109.217 131.899 107.292 135.05C105.367 138.201 101.251 139.195 98.1001 137.269Z" fill="#FDCB6E"/>
<path d="M90.7021 106.629C87.551 104.704 86.5573 100.589 88.4827 97.4374C90.4082 94.2863 94.5235 93.2926 97.6747 95.218C100.826 97.1435 101.82 101.259 99.8941 104.41C97.9687 107.561 93.8533 108.555 90.7021 106.629Z" fill="#FDCB6E"/>
<path d="M60.062 114.027C56.9108 112.102 55.9172 107.987 57.8426 104.835C59.768 101.684 63.8834 100.691 67.0346 102.616C70.1857 104.541 71.1794 108.657 69.2539 111.808C67.3285 114.959 63.2131 115.953 60.062 114.027Z" fill="#FDCB6E"/>
<path d="M52.664 83.3874C49.5129 81.462 48.5192 77.3466 50.4447 74.1955C52.3701 71.0443 56.4855 70.0507 59.6366 71.9761C62.7878 73.9015 63.7814 78.0169 61.856 81.1681C59.9306 84.3192 55.8152 85.3129 52.664 83.3874Z" fill="#FDCB6E"/>
<path d="M22.0244 90.7854C18.8732 88.8599 17.8796 84.7446 19.805 81.5934C21.7304 78.4423 25.8458 77.4486 28.997 79.374C32.1481 81.2995 33.1418 85.4148 31.2163 88.566C29.2909 91.7171 25.1755 92.7108 22.0244 90.7854Z" fill="#FDCB6E"/>
<path d="M14.6264 60.1455C11.4753 58.2201 10.4816 54.1047 12.4071 50.9536C14.3325 47.8024 18.4479 46.8088 21.599 48.7342C24.7502 50.6596 25.7438 54.775 23.8184 57.9261C21.893 61.0773 17.7776 62.0709 14.6264 60.1455Z" fill="#FDCB6E"/>
<path d="M143.536 191.151C140.384 189.226 139.391 185.11 141.316 181.959C143.242 178.808 147.357 177.814 150.508 179.74C153.659 181.665 154.653 185.781 152.728 188.932C150.802 192.083 146.687 193.076 143.536 191.151Z" fill="#FDCB6E"/>
<path d="M112.895 198.549C109.744 196.624 108.751 192.508 110.676 189.357C112.602 186.206 116.717 185.212 119.868 187.138C123.019 189.063 124.013 193.178 122.087 196.33C120.162 199.481 116.047 200.474 112.895 198.549Z" fill="#FDCB6E"/>
<path d="M105.498 167.909C102.347 165.984 101.353 161.868 103.279 158.717C105.204 155.566 109.319 154.572 112.471 156.498C115.622 158.423 116.615 162.539 114.69 165.69C112.765 168.841 108.649 169.835 105.498 167.909Z" fill="#FDCB6E"/>
<path d="M74.8579 175.307C71.7067 173.382 70.7131 169.266 72.6385 166.115C74.5639 162.964 78.6793 161.97 81.8305 163.896C84.9816 165.821 85.9753 169.937 84.0498 173.088C82.1244 176.239 78.009 177.232 74.8579 175.307Z" fill="#FDCB6E"/>
<path d="M67.4599 144.667C64.3088 142.742 63.3151 138.626 65.2406 135.475C67.166 132.324 71.2814 131.33 74.4325 133.256C77.5837 135.181 78.5773 139.297 76.6519 142.448C74.7265 145.599 70.6111 146.593 67.4599 144.667Z" fill="#FDCB6E"/>
<path d="M36.8203 152.065C33.6691 150.14 32.6755 146.024 34.6009 142.873C36.5263 139.722 40.6417 138.728 43.7929 140.654C46.944 142.579 47.9377 146.695 46.0122 149.846C44.0868 152.997 39.9714 153.991 36.8203 152.065Z" fill="#FDCB6E"/>
<path d="M29.4223 121.425C26.2712 119.5 25.2775 115.384 27.203 112.233C29.1284 109.082 33.2438 108.088 36.3949 110.014C39.5461 111.939 40.5397 116.055 38.6143 119.206C36.6889 122.357 32.5735 123.351 29.4223 121.425Z" fill="#FDCB6E"/>
<path d="M-1.2178 128.823C-4.36895 126.898 -5.3626 122.782 -3.43718 119.631C-1.51175 116.48 2.60363 115.486 5.75478 117.412C8.90593 119.337 9.89958 123.453 7.97416 126.604C6.04873 129.755 1.93335 130.749 -1.2178 128.823Z" fill="#FDCB6E"/>
<path d="M-8.61575 98.1833C-11.7669 96.2579 -12.7606 92.1425 -10.8351 88.9913C-8.9097 85.8402 -4.79432 84.8465 -1.64317 86.772C1.50799 88.6974 2.50163 92.8128 0.576209 95.9639C-1.34922 99.1151 -5.4646 100.109 -8.61575 98.1833Z" fill="#FDCB6E"/>
<path d="M120.293 229.189C117.142 227.263 116.149 223.148 118.074 219.997C119.999 216.846 124.115 215.852 127.266 217.778C130.417 219.703 131.411 223.818 129.485 226.969C127.56 230.121 123.445 231.114 120.293 229.189Z" fill="#FDCB6E"/>
<path d="M89.6538 236.587C86.5026 234.661 85.509 230.546 87.4344 227.395C89.3598 224.244 93.4752 223.25 96.6264 225.175C99.7775 227.101 100.771 231.216 98.8457 234.367C96.9203 237.519 92.8049 238.512 89.6538 236.587Z" fill="#FDCB6E"/>
<path d="M82.2558 205.947C79.1047 204.021 78.111 199.906 80.0365 196.755C81.9619 193.604 86.0773 192.61 89.2284 194.536C92.3796 196.461 93.3732 200.576 91.4478 203.728C89.5224 206.879 85.407 207.872 82.2558 205.947Z" fill="#FDCB6E"/>
<path d="M51.6162 213.345C48.465 211.419 47.4714 207.304 49.3968 204.153C51.3222 201.002 55.4376 200.008 58.5888 201.933C61.7399 203.859 62.7336 207.974 60.8081 211.125C58.8827 214.277 54.7673 215.27 51.6162 213.345Z" fill="#FDCB6E"/>
<path d="M44.2182 182.705C41.0671 180.78 40.0734 176.664 41.9989 173.513C43.9243 170.362 48.0397 169.368 51.1908 171.294C54.342 173.219 55.3356 177.334 53.4102 180.486C51.4848 183.637 47.3694 184.63 44.2182 182.705Z" fill="#FDCB6E"/>
<path d="M13.5781 190.103C10.4269 188.177 9.4333 184.062 11.3587 180.911C13.2841 177.76 17.3995 176.766 20.5507 178.692C23.7018 180.617 24.6955 184.732 22.7701 187.884C20.8446 191.035 16.7293 192.028 13.5781 190.103Z" fill="#FDCB6E"/>
<path d="M6.18015 159.463C3.02899 157.538 2.03535 153.422 3.96077 150.271C5.8862 147.12 10.0016 146.126 13.1527 148.052C16.3039 149.977 17.2975 154.092 15.3721 157.244C13.4467 160.395 9.3313 161.388 6.18015 159.463Z" fill="#FDCB6E"/>
<path d="M97.0517 267.227C93.9006 265.301 92.9069 261.186 94.8324 258.035C96.7578 254.884 100.873 253.89 104.024 255.815C107.175 257.741 108.169 261.856 106.244 265.007C104.318 268.158 100.203 269.152 97.0517 267.227Z" fill="#FDCB6E"/>
<path d="M66.4121 274.625C63.2609 272.699 62.2673 268.584 64.1927 265.433C66.1181 262.281 70.2335 261.288 73.3847 263.213C76.5358 265.139 77.5295 269.254 75.604 272.405C73.6786 275.556 69.5632 276.55 66.4121 274.625Z" fill="#FDCB6E"/>
<path d="M59.0141 243.985C55.863 242.059 54.8693 237.944 56.7948 234.793C58.7202 231.642 62.8356 230.648 65.9867 232.573C69.1379 234.499 70.1315 238.614 68.2061 241.765C66.2807 244.916 62.1653 245.91 59.0141 243.985Z" fill="#FDCB6E"/>
<path d="M28.374 251.383C25.2228 249.457 24.2292 245.342 26.1546 242.191C28.08 239.039 32.1954 238.046 35.3466 239.971C38.4977 241.897 39.4914 246.012 37.566 249.163C35.6405 252.314 31.5251 253.308 28.374 251.383Z" fill="#FDCB6E"/>
<path d="M20.976 220.743C17.8249 218.817 16.8312 214.702 18.7567 211.551C20.6821 208.4 24.7975 207.406 27.9486 209.331C31.0998 211.257 32.0934 215.372 30.168 218.523C28.2426 221.675 24.1272 222.668 20.976 220.743Z" fill="#FDCB6E"/>
<path d="M-9.6636 228.141C-12.8148 226.215 -13.8084 222.1 -11.883 218.949C-9.95755 215.798 -5.84217 214.804 -2.69102 216.729C0.460134 218.655 1.45378 222.77 -0.471643 225.921C-2.39707 229.072 -6.51245 230.066 -9.6636 228.141Z" fill="#FDCB6E"/>
<path d="M73.8095 305.264C70.6584 303.339 69.6647 299.224 71.5902 296.072C73.5156 292.921 77.631 291.928 80.7821 293.853C83.9333 295.779 84.9269 299.894 83.0015 303.045C81.0761 306.196 76.9607 307.19 73.8095 305.264Z" fill="#FDCB6E"/>
<path d="M43.1699 312.662C40.0187 310.737 39.0251 306.622 40.9505 303.47C42.8759 300.319 46.9913 299.326 50.1425 301.251C53.2936 303.176 54.2873 307.292 52.3619 310.443C50.4364 313.594 46.321 314.588 43.1699 312.662Z" fill="#FDCB6E"/>
<path d="M35.7719 282.022C32.6208 280.097 31.6271 275.982 33.5526 272.831C35.478 269.679 39.5934 268.686 42.7445 270.611C45.8957 272.537 46.8893 276.652 44.9639 279.803C43.0385 282.954 38.9231 283.948 35.7719 282.022Z" fill="#FDCB6E"/>
<path d="M5.1323 289.42C1.98114 287.495 0.987494 283.38 2.91292 280.228C4.83835 277.077 8.95373 276.084 12.1049 278.009C15.256 279.934 16.2497 284.05 14.3243 287.201C12.3988 290.352 8.28345 291.346 5.1323 289.42Z" fill="#FDCB6E"/>
<path d="M-2.26565 258.781C-5.41681 256.855 -6.41045 252.74 -4.48503 249.589C-2.5596 246.437 1.55578 245.444 4.70693 247.369C7.85808 249.295 8.85173 253.41 6.92631 256.561C5.00088 259.712 0.885501 260.706 -2.26565 258.781Z" fill="#FDCB6E"/>
<path d="M50.5678 343.302C47.4167 341.377 46.423 337.261 48.3485 334.11C50.2739 330.959 54.3893 329.965 57.5404 331.891C60.6916 333.816 61.6852 337.932 59.7598 341.083C57.8344 344.234 53.719 345.228 50.5678 343.302Z" fill="#FDCB6E"/>
<path d="M19.9282 350.7C16.777 348.775 15.7834 344.659 17.7088 341.508C19.6342 338.357 23.7496 337.363 26.9008 339.289C30.0519 341.214 31.0456 345.33 29.1202 348.481C27.1947 351.632 23.0793 352.626 19.9282 350.7Z" fill="#FDCB6E"/>
<path d="M12.5302 320.06C9.37909 318.135 8.38544 314.019 10.3109 310.868C12.2363 307.717 16.3517 306.723 19.5028 308.649C22.654 310.574 23.6476 314.69 21.7222 317.841C19.7968 320.992 15.6814 321.986 12.5302 320.06Z" fill="#FDCB6E"/>
<path d="M27.3257 381.34C24.1745 379.415 23.1809 375.299 25.1063 372.148C27.0317 368.997 31.1471 368.003 34.2982 369.929C37.4494 371.854 38.443 375.969 36.5176 379.121C34.5922 382.272 30.4768 383.265 27.3257 381.34Z" fill="#FDCB6E"/>
<path d="M-3.31399 388.738C-6.46515 386.812 -7.45879 382.697 -5.53337 379.546C-3.60794 376.395 0.507436 375.401 3.65859 377.327C6.80974 379.252 7.80339 383.367 5.87797 386.519C3.95254 389.67 -0.162839 390.663 -3.31399 388.738Z" fill="#FDCB6E"/>
<path d="M-10.7119 358.098C-13.8631 356.173 -14.8567 352.057 -12.9313 348.906C-11.0059 345.755 -6.89051 344.761 -3.73936 346.687C-0.588206 348.612 0.405443 352.728 -1.51998 355.879C-3.44541 359.03 -7.56079 360.023 -10.7119 358.098Z" fill="#FDCB6E"/>
<path d="M4.08396 419.378C0.932803 417.452 -0.0608455 413.337 1.86458 410.186C3.79001 407.035 7.90539 406.041 11.0565 407.966C14.2077 409.892 15.2013 414.007 13.2759 417.158C11.3505 420.31 7.23511 421.303 4.08396 419.378Z" fill="#FDCB6E"/>
</g>
<defs>
<clipPath id="clip0">
<rect width="746.627" height="237.208" fill="white" transform="matrix(-0.853315 -0.521395 -0.521395 0.853315 507 293.086)"/>
</clipPath>
</defs>
</svg>
