<svg width="797" height="748" viewBox="0 0 797 748" fill="none" xmlns="http://www.w3.org/2000/svg">
<rect y="217.183" width="1345.18" height="750.689" rx="99" transform="rotate(-45 0 217.183)" fill="#FFEAA7"/>
<g clip-path="url(#clip0)">
<path d="M781.511 118.916C785.204 118.916 788.197 115.922 788.197 112.23C788.197 108.537 785.204 105.543 781.511 105.543C777.818 105.543 774.824 108.537 774.824 112.23C774.824 115.922 777.818 118.916 781.511 118.916Z" fill="#FDCB6E"/>
<path d="M736.934 163.493C740.627 163.493 743.621 160.499 743.621 156.806C743.621 153.113 740.627 150.12 736.934 150.12C733.241 150.12 730.248 153.113 730.248 156.806C730.248 160.499 733.241 163.493 736.934 163.493Z" fill="#FDCB6E"/>
<path d="M759.222 141.204C762.915 141.204 765.909 138.211 765.909 134.518C765.909 130.825 762.915 127.831 759.222 127.831C755.53 127.831 752.536 130.825 752.536 134.518C752.536 138.211 755.53 141.204 759.222 141.204Z" fill="#FDCB6E"/>
<path d="M781.511 163.493C785.204 163.493 788.197 160.499 788.197 156.806C788.197 153.113 785.204 150.12 781.511 150.12C777.818 150.12 774.824 153.113 774.824 156.806C774.824 160.499 777.818 163.493 781.511 163.493Z" fill="#FDCB6E"/>
<path d="M692.358 208.069C696.051 208.069 699.044 205.075 699.044 201.383C699.044 197.69 696.051 194.696 692.358 194.696C688.665 194.696 685.671 197.69 685.671 201.383C685.671 205.075 688.665 208.069 692.358 208.069Z" fill="#FDCB6E"/>
<path d="M714.646 185.781C718.339 185.781 721.333 182.787 721.333 179.094C721.333 175.401 718.339 172.408 714.646 172.408C710.953 172.408 707.96 175.401 707.96 179.094C707.96 182.787 710.953 185.781 714.646 185.781Z" fill="#FDCB6E"/>
<path d="M736.934 208.069C740.627 208.069 743.621 205.075 743.621 201.383C743.621 197.69 740.627 194.696 736.934 194.696C733.241 194.696 730.248 197.69 730.248 201.383C730.248 205.075 733.241 208.069 736.934 208.069Z" fill="#FDCB6E"/>
<path d="M759.222 185.781C762.915 185.781 765.909 182.787 765.909 179.094C765.909 175.401 762.915 172.408 759.222 172.408C755.53 172.408 752.536 175.401 752.536 179.094C752.536 182.787 755.53 185.781 759.222 185.781Z" fill="#FDCB6E"/>
<path d="M781.511 208.069C785.204 208.069 788.197 205.075 788.197 201.383C788.197 197.69 785.204 194.696 781.511 194.696C777.818 194.696 774.824 197.69 774.824 201.383C774.824 205.075 777.818 208.069 781.511 208.069Z" fill="#FDCB6E"/>
<path d="M714.646 230.357C718.339 230.357 721.333 227.364 721.333 223.671C721.333 219.978 718.339 216.984 714.646 216.984C710.953 216.984 707.96 219.978 707.96 223.671C707.96 227.364 710.953 230.357 714.646 230.357Z" fill="#FDCB6E"/>
<path d="M736.934 252.645C740.627 252.645 743.621 249.652 743.621 245.959C743.621 242.266 740.627 239.272 736.934 239.272C733.241 239.272 730.248 242.266 730.248 245.959C730.248 249.652 733.241 252.645 736.934 252.645Z" fill="#FDCB6E"/>
<path d="M759.222 230.357C762.915 230.357 765.909 227.364 765.909 223.671C765.909 219.978 762.915 216.984 759.222 216.984C755.53 216.984 752.536 219.978 752.536 223.671C752.536 227.364 755.53 230.357 759.222 230.357Z" fill="#FDCB6E"/>
<path d="M781.511 252.645C785.204 252.645 788.197 249.652 788.197 245.959C788.197 242.266 785.204 239.272 781.511 239.272C777.818 239.272 774.824 242.266 774.824 245.959C774.824 249.652 777.818 252.645 781.511 252.645Z" fill="#FDCB6E"/>
<path d="M759.222 274.934C762.915 274.934 765.909 271.94 765.909 268.247C765.909 264.554 762.915 261.561 759.222 261.561C755.53 261.561 752.536 264.554 752.536 268.247C752.536 271.94 755.53 274.934 759.222 274.934Z" fill="#FDCB6E"/>
<path d="M781.511 297.222C785.204 297.222 788.197 294.228 788.197 290.535C788.197 286.843 785.204 283.849 781.511 283.849C777.818 283.849 774.824 286.843 774.824 290.535C774.824 294.228 777.818 297.222 781.511 297.222Z" fill="#FDCB6E"/>
</g>
<defs>
<clipPath id="clip0">
<rect width="204.314" height="278.61" fill="white" transform="translate(618.807 83.2549)"/>
</clipPath>
</defs>
</svg>
