<svg width="444" height="296" viewBox="0 0 444 296" fill="none" xmlns="http://www.w3.org/2000/svg">
<g opacity="0.5">
<path opacity="0.5" d="M117.767 199.358C117.767 209.239 109.532 216.513 98.9647 216.513C88.3972 216.513 80.1629 209.102 80.1629 199.358V176.988H20.0519C8.52382 176.988 0.701172 168.205 0.701172 158.461C0.701172 157.363 1.79909 152.422 3.44596 148.854L55.8715 27.8088C58.6163 21.2213 65.7527 17.1041 72.7519 17.1041C82.0842 17.1041 91.5538 25.3384 91.5538 34.808C91.5538 36.4548 91.5538 38.3762 90.4559 40.8465C74.6733 77.4895 61.7728 106.173 45.9902 142.678H80.1629V100.957C80.1629 91.0762 88.3972 83.8025 98.9647 83.8025C109.12 83.8025 117.767 91.2134 117.767 100.957V142.678H121.335C131.765 142.678 139.588 150.638 139.588 159.559C139.588 169.166 131.628 176.714 121.335 176.714H117.767V199.358ZM278.062 81.8812V156.951C278.062 190.3 255.692 216.788 214.932 216.788C174.172 216.788 151.802 190.3 151.802 156.951V81.8812C151.802 45.7871 170.878 16.8296 214.932 16.8296C258.986 16.9668 278.062 45.9244 278.062 81.8812ZM189.817 79.9598V156.951C189.817 172.459 198.601 183.164 214.932 183.164C231.264 183.164 240.047 172.459 240.047 156.951V79.9598C240.047 62.5304 232.911 50.1788 214.932 50.1788C196.954 50.1788 189.817 62.5304 189.817 79.9598ZM412.694 199.358C412.694 209.239 404.46 216.513 393.893 216.513C383.325 216.513 375.091 209.102 375.091 199.358V176.988H314.98C303.452 176.988 295.629 168.205 295.629 158.461C295.629 157.363 296.727 152.422 298.374 148.854L350.799 27.8088C353.544 21.2213 360.681 17.1041 367.68 17.1041C377.012 17.1041 386.482 25.3384 386.482 34.808C386.482 36.4548 386.482 38.3762 385.384 40.8465C369.601 77.4895 356.701 106.173 340.918 142.678H375.091V100.957C375.091 91.0762 383.325 83.8025 393.893 83.8025C404.048 83.8025 412.694 91.2134 412.694 100.957V142.678H416.263C426.693 142.678 434.516 150.638 434.516 159.559C434.516 169.166 426.556 176.714 416.263 176.714H412.694V199.358Z" fill="#3B3D3D"/>
</g>
<path d="M126.413 182.889C126.413 192.77 118.178 200.044 107.611 200.044C97.0435 200.044 88.8091 192.633 88.8091 182.889V160.519H28.6982C17.1701 160.519 9.34741 151.736 9.34741 141.992C9.34741 140.894 10.4453 135.953 12.0922 132.385L64.5177 11.3398C67.2625 4.75226 74.399 0.635071 81.3982 0.635071C90.7305 0.635071 100.2 8.86945 100.2 18.339C100.2 19.9859 100.2 21.9072 99.1021 24.3775C83.3195 61.0205 70.419 89.7036 54.6365 126.209H88.8091V84.4885C88.8091 74.6072 97.0435 67.3335 107.611 67.3335C117.767 67.3335 126.413 74.7445 126.413 84.4885V126.209H129.981C140.411 126.209 148.234 134.169 148.234 143.09C148.234 152.697 140.274 160.245 129.981 160.245H126.413V182.889ZM286.709 65.4122V140.482C286.709 173.831 264.339 200.319 223.578 200.319C182.818 200.319 160.448 173.831 160.448 140.482V65.4122C160.448 29.3182 179.525 0.360596 223.578 0.360596C267.632 0.497835 286.709 29.4554 286.709 65.4122ZM198.601 63.4908V140.482C198.601 155.99 207.384 166.695 223.716 166.695C240.047 166.695 248.83 155.99 248.83 140.482V63.4908C248.83 46.0614 241.694 33.7098 223.716 33.7098C205.737 33.7098 198.601 46.0614 198.601 63.4908ZM421.478 182.889C421.478 192.77 413.244 200.044 402.676 200.044C391.971 200.044 383.874 192.633 383.874 182.889V160.519H323.763C312.235 160.519 304.413 151.736 304.413 141.992C304.413 140.894 305.51 135.953 307.157 132.385L359.583 11.3398C362.328 4.75226 369.464 0.635071 376.463 0.635071C385.796 0.635071 395.265 8.86945 395.265 18.339C395.265 19.9859 395.265 21.9072 394.167 24.3775C378.385 61.0205 365.484 89.7036 349.702 126.209H383.874V84.4885C383.874 74.6072 392.109 67.3335 402.676 67.3335C412.832 67.3335 421.478 74.7445 421.478 84.4885V126.209H425.046C435.476 126.209 443.299 134.169 443.299 143.09C443.299 152.697 435.339 160.245 425.046 160.245H421.478V182.889Z" fill="#FDCB6E"/>
<path d="M107.605 267.407C107.605 270.675 106.863 273.286 105.379 275.239C103.895 277.179 101.902 278.149 99.4023 278.149C97.0846 278.149 95.2292 277.388 93.8359 275.864V285.884H89.0898V256.626H93.4648L93.6602 258.774C95.0534 257.082 96.9479 256.235 99.3438 256.235C101.922 256.235 103.94 257.199 105.398 259.126C106.87 261.04 107.605 263.703 107.605 267.114V267.407ZM102.879 266.997C102.879 264.888 102.456 263.215 101.609 261.978C100.776 260.741 99.5781 260.122 98.0156 260.122C96.0755 260.122 94.6823 260.923 93.8359 262.524V271.899C94.6953 273.54 96.1016 274.36 98.0547 274.36C99.5651 274.36 100.743 273.755 101.59 272.544C102.449 271.32 102.879 269.471 102.879 266.997ZM124.266 277.759C124.057 277.355 123.875 276.698 123.719 275.786C122.208 277.362 120.359 278.149 118.172 278.149C116.049 278.149 114.318 277.544 112.977 276.333C111.635 275.122 110.965 273.625 110.965 271.841C110.965 269.588 111.798 267.863 113.465 266.665C115.145 265.454 117.54 264.849 120.652 264.849H123.562V263.462C123.562 262.368 123.257 261.496 122.645 260.845C122.033 260.181 121.102 259.849 119.852 259.849C118.771 259.849 117.885 260.122 117.195 260.669C116.505 261.203 116.16 261.886 116.16 262.72H111.414C111.414 261.561 111.798 260.48 112.566 259.478C113.335 258.462 114.376 257.668 115.691 257.095C117.02 256.522 118.497 256.235 120.125 256.235C122.599 256.235 124.572 256.86 126.043 258.11C127.514 259.347 128.27 261.092 128.309 263.345V272.876C128.309 274.777 128.576 276.294 129.109 277.427V277.759H124.266ZM119.051 274.341C119.988 274.341 120.867 274.113 121.688 273.657C122.521 273.201 123.146 272.59 123.562 271.821V267.837H121.004C119.246 267.837 117.924 268.143 117.039 268.755C116.154 269.367 115.711 270.233 115.711 271.353C115.711 272.264 116.01 272.993 116.609 273.54C117.221 274.074 118.035 274.341 119.051 274.341ZM132.449 267.036C132.449 263.755 133.217 261.138 134.754 259.185C136.303 257.218 138.354 256.235 140.906 256.235C143.315 256.235 145.21 257.075 146.59 258.755L146.805 256.626H151.082V277.114C151.082 279.888 150.216 282.075 148.484 283.677C146.766 285.278 144.441 286.079 141.512 286.079C139.962 286.079 138.445 285.754 136.961 285.103C135.49 284.465 134.37 283.625 133.602 282.583L135.848 279.731C137.306 281.463 139.103 282.329 141.238 282.329C142.814 282.329 144.057 281.899 144.969 281.04C145.88 280.194 146.336 278.944 146.336 277.29V275.864C144.969 277.388 143.146 278.149 140.867 278.149C138.393 278.149 136.368 277.166 134.793 275.2C133.23 273.234 132.449 270.513 132.449 267.036ZM137.176 267.446C137.176 269.569 137.605 271.242 138.465 272.466C139.337 273.677 140.542 274.282 142.078 274.282C143.992 274.282 145.411 273.462 146.336 271.821V262.524C145.438 260.923 144.031 260.122 142.117 260.122C140.555 260.122 139.337 260.741 138.465 261.978C137.605 263.215 137.176 265.037 137.176 267.446ZM165.281 278.149C162.273 278.149 159.832 277.205 157.957 275.317C156.095 273.416 155.164 270.89 155.164 267.739V267.153C155.164 265.044 155.568 263.162 156.375 261.509C157.195 259.842 158.341 258.547 159.812 257.622C161.284 256.698 162.924 256.235 164.734 256.235C167.612 256.235 169.832 257.153 171.395 258.989C172.97 260.825 173.758 263.423 173.758 266.782V268.696H159.949C160.092 270.441 160.672 271.821 161.688 272.837C162.716 273.853 164.005 274.36 165.555 274.36C167.729 274.36 169.5 273.481 170.867 271.724L173.426 274.165C172.579 275.428 171.447 276.411 170.027 277.114C168.621 277.804 167.039 278.149 165.281 278.149ZM164.715 260.044C163.413 260.044 162.358 260.5 161.551 261.411C160.757 262.323 160.249 263.592 160.027 265.22H169.07V264.868C168.966 263.28 168.543 262.082 167.801 261.274C167.059 260.454 166.03 260.044 164.715 260.044ZM191.824 256.626L191.961 259.067C193.523 257.179 195.574 256.235 198.113 256.235C202.514 256.235 204.754 258.755 204.832 263.794V277.759H200.086V264.067C200.086 262.726 199.793 261.737 199.207 261.099C198.634 260.448 197.69 260.122 196.375 260.122C194.461 260.122 193.035 260.988 192.098 262.72V277.759H187.352V256.626H191.824ZM208.797 266.997C208.797 264.927 209.207 263.065 210.027 261.411C210.848 259.744 212 258.468 213.484 257.583C214.969 256.685 216.674 256.235 218.602 256.235C221.453 256.235 223.764 257.153 225.535 258.989C227.319 260.825 228.283 263.26 228.426 266.294L228.445 267.407C228.445 269.491 228.042 271.353 227.234 272.993C226.44 274.634 225.294 275.903 223.797 276.802C222.312 277.7 220.594 278.149 218.641 278.149C215.659 278.149 213.27 277.16 211.473 275.181C209.689 273.188 208.797 270.539 208.797 267.231V266.997ZM213.543 267.407C213.543 269.582 213.992 271.287 214.891 272.524C215.789 273.748 217.039 274.36 218.641 274.36C220.242 274.36 221.486 273.735 222.371 272.485C223.27 271.235 223.719 269.406 223.719 266.997C223.719 264.862 223.257 263.169 222.332 261.919C221.421 260.669 220.177 260.044 218.602 260.044C217.052 260.044 215.822 260.662 214.91 261.899C213.999 263.123 213.543 264.959 213.543 267.407ZM238.406 251.489V256.626H242.137V260.142H238.406V271.938C238.406 272.746 238.562 273.332 238.875 273.696C239.201 274.048 239.773 274.224 240.594 274.224C241.141 274.224 241.694 274.159 242.254 274.028V277.7C241.173 278 240.132 278.149 239.129 278.149C235.483 278.149 233.66 276.138 233.66 272.114V260.142H230.184V256.626H233.66V251.489H238.406ZM257.41 277.759V260.142H254.188V256.626H257.41V254.692C257.41 252.349 258.061 250.539 259.363 249.263C260.665 247.987 262.488 247.349 264.832 247.349C265.665 247.349 266.551 247.466 267.488 247.7L267.371 251.411C266.85 251.307 266.245 251.255 265.555 251.255C263.289 251.255 262.156 252.42 262.156 254.751V256.626H266.453V260.142H262.156V277.759H257.41ZM269.031 266.997C269.031 264.927 269.441 263.065 270.262 261.411C271.082 259.744 272.234 258.468 273.719 257.583C275.203 256.685 276.909 256.235 278.836 256.235C281.688 256.235 283.999 257.153 285.77 258.989C287.553 260.825 288.517 263.26 288.66 266.294L288.68 267.407C288.68 269.491 288.276 271.353 287.469 272.993C286.674 274.634 285.529 275.903 284.031 276.802C282.547 277.7 280.828 278.149 278.875 278.149C275.893 278.149 273.504 277.16 271.707 275.181C269.923 273.188 269.031 270.539 269.031 267.231V266.997ZM273.777 267.407C273.777 269.582 274.227 271.287 275.125 272.524C276.023 273.748 277.273 274.36 278.875 274.36C280.477 274.36 281.72 273.735 282.605 272.485C283.504 271.235 283.953 269.406 283.953 266.997C283.953 264.862 283.491 263.169 282.566 261.919C281.655 260.669 280.411 260.044 278.836 260.044C277.286 260.044 276.056 260.662 275.145 261.899C274.233 263.123 273.777 264.959 273.777 267.407ZM305.496 275.688C304.103 277.329 302.124 278.149 299.559 278.149C297.267 278.149 295.529 277.479 294.344 276.138C293.172 274.797 292.586 272.856 292.586 270.317V256.626H297.332V270.259C297.332 272.941 298.445 274.282 300.672 274.282C302.977 274.282 304.533 273.455 305.34 271.802V256.626H310.086V277.759H305.613L305.496 275.688ZM319.324 256.626L319.461 259.067C321.023 257.179 323.074 256.235 325.613 256.235C330.014 256.235 332.254 258.755 332.332 263.794V277.759H327.586V264.067C327.586 262.726 327.293 261.737 326.707 261.099C326.134 260.448 325.19 260.122 323.875 260.122C321.961 260.122 320.535 260.988 319.598 262.72V277.759H314.852V256.626H319.324ZM336.297 267.036C336.297 263.781 337.052 261.17 338.562 259.204C340.073 257.225 342.098 256.235 344.637 256.235C346.876 256.235 348.686 257.017 350.066 258.579V247.759H354.812V277.759H350.516L350.281 275.571C348.862 277.29 346.967 278.149 344.598 278.149C342.124 278.149 340.118 277.153 338.582 275.161C337.059 273.169 336.297 270.461 336.297 267.036ZM341.043 267.446C341.043 269.595 341.453 271.274 342.273 272.485C343.107 273.683 344.285 274.282 345.809 274.282C347.749 274.282 349.168 273.416 350.066 271.685V262.661C349.194 260.968 347.788 260.122 345.848 260.122C344.311 260.122 343.126 260.734 342.293 261.958C341.46 263.169 341.043 264.998 341.043 267.446Z" fill="#485C73"/>
</svg>
