<svg id="Layer_1" enable-background="new 0 0 512.14 512.14" height="512" viewBox="0 0 512.14 512.14" width="512" xmlns="http://www.w3.org/2000/svg"><g><path d="m186.621 163.186-22.693 22.693 21.213 21.213 22.693-22.693c9.74 6.779 20.967 11.551 33.088 13.735v32.062h30v-32.062c12.121-2.184 23.347-6.956 33.088-13.735l22.693 22.693 21.213-21.213-22.693-22.693c6.779-9.74 11.551-20.967 13.735-33.087h32.062v-30h-32.062c-2.184-12.121-6.956-23.348-13.736-33.088l22.693-22.692-21.213-21.213-22.693 22.692c-9.74-6.78-20.967-11.551-33.088-13.736v-32.062h-30v32.062c-12.121 2.185-23.348 6.956-33.088 13.736l-22.693-22.692-21.213 21.213 22.693 22.692c-6.779 9.74-11.551 20.967-13.736 33.088h-32.062v30h32.062c2.186 12.12 6.957 23.347 13.737 33.087zm69.3-102.486c29.995 0 54.398 24.403 54.398 54.398s-24.403 54.397-54.398 54.397-54.398-24.402-54.398-54.397 24.403-54.398 54.398-54.398z"/><path d="m472.562 243.444c-26.01-26.01-68.221-26.162-94.437-.481l-110.664 110.665h-76.037v-30h63.61l46.163-46.163h-142.641c-26.625 0-51.459 13.145-66.431 35.162l-79.516 116.936 122.686 82.577 50.393-61.569h133.687l180.156-180.156z"/></g></svg>